<svg
  xmlns="http://www.w3.org/2000/svg"
  viewBox="0 0 64 64"
  width="64"
  height="64"
  fill="none"
  stroke="currentColor"
  strokeWidth="2"
  strokeLinecap="round"
  strokeLinejoin="round"
>
  <!-- Rabbit head -->
  <circle cx="32" cy="32" r="10" fill="white" stroke="black"/>
  
  <!-- Rabbit ears -->
  <path d="M26,12 C24,4 34,4 32,12" fill="white" stroke="black"/>
  <path d="M38,12 C40,4 30,4 32,12" fill="white" stroke="black"/>
  
  <!-- Wizard hat -->
  <path d="M28,16 C28,8 36,8 36,16" fill="black" />
  <polygon points="30,8 34,8 32,2" fill="black" />
  
  <!-- Eyes -->
  <circle cx="30" cy="30" r="1" fill="black"/>
  <circle cx="34" cy="30" r="1" fill="black"/>
  
  <!-- Nose and mouth -->
  <path d="M32,32 L32,34" stroke="black"/>
  <path d="M32,34 Q30,36 34,36" fill="none" stroke="black"/>
  
  <!-- Sparkles (magic effect) -->
  <circle cx="20" cy="16" r="1" fill="gold"/>
  <circle cx="44" cy="18" r="1" fill="gold"/>
  <circle cx="24" cy="6" r="1" fill="gold"/>
  <circle cx="40" cy="8" r="1" fill="gold"/>
</svg>
